<svg width="50" height="50" viewBox="0 0 50 50" fill="none" xmlns="http://www.w3.org/2000/svg">
<path d="M38.8838 11.5962C36.2558 10.3659 33.4814 9.49305 30.6315 9C30.2415 9.71287 29.8887 10.4463 29.5744 11.1973C26.5387 10.7295 23.4517 10.7295 20.416 11.1973C20.1016 10.4464 19.7487 9.71296 19.3589 9C16.5072 9.49721 13.731 10.3721 11.1003 11.6026C5.87774 19.5038 4.46198 27.2088 5.16986 34.8044C8.22833 37.1151 11.6516 38.8724 15.291 40C16.1104 38.873 16.8356 37.6774 17.4587 36.4258C16.2752 35.9738 15.1329 35.4162 14.0451 34.7593C14.3314 34.547 14.6114 34.3282 14.882 34.1159C18.0473 35.6381 21.5021 36.4273 24.9999 36.4273C28.4978 36.4273 31.9526 35.6381 35.1179 34.1159C35.3916 34.3443 35.6716 34.5631 35.9548 34.7593C34.8648 35.4172 33.7205 35.976 32.5349 36.429C33.1572 37.68 33.8824 38.8746 34.7026 40C38.345 38.877 41.771 37.1204 44.83 34.8076C45.6606 25.9992 43.4111 18.365 38.8838 11.5962ZM18.3553 30.1331C16.3827 30.1331 14.753 28.3026 14.753 26.0506C14.753 23.7987 16.326 21.9521 18.349 21.9521C20.372 21.9521 21.9891 23.7987 21.9545 26.0506C21.9199 28.3026 20.3657 30.1331 18.3553 30.1331ZM31.6446 30.1331C29.6688 30.1331 28.0454 28.3026 28.0454 26.0506C28.0454 23.7987 29.6185 21.9521 31.6446 21.9521C33.6707 21.9521 35.2752 23.7987 35.2406 26.0506C35.206 28.3026 33.6549 30.1331 31.6446 30.1331Z" fill="white"/>
</svg>
